# xmcd
#
# Track frame offsets:
# 190
# 15755
# 29700
# 46602
# 63957
# 79145
# 93890
# 108280
# 125020
# 139827
# 158635
# 174815
# 191855
# 208427
#
# Disc length: 2983 seconds
#
#
# Revision: 0
# Processed by: cddbd v1.5.2PL0 Copyright (c) Steve Scherf et al.
# Submitted via: Nero 7, 11, 10, 0 
#
DISCID=b30ba50e
DTITLE=Rockin' Sidney - Mais Yeah Chere
DYEAR=1992
DGENRE=Blues
TTITLE0=Mais Yeah Chere!
TTITLE1=No Good Woman
TTITLE2=Funky Attitude (Yeah Right!)
TTITLE3=Color Me Zydeco
TTITLE4=Sex It Up Baby
TTITLE5=Corrine
TTITLE6=Kinfolk Zydeco
TTITLE7=Work That Coochie Baby
TTITLE8=Don't Need No Husband
TTITLE9=Moo Cow-A-Sockee
TTITLE10=Zydeco Frotoir
TTITLE11=Go Chere Go
TTITLE12=Mardi Gras Zydeco
TTITLE13=Mardi Gras Second Line
EXTD=
EXTT0=Mais Yeah Chere!
EXTT1=No Good Woman
EXTT2=Funky Attitude (Yeah Right!)
EXTT3=Color Me Zydeco
EXTT4=Sex It Up Baby
EXTT5=Corrine
EXTT6=Kinfolk Zydeco
EXTT7=Work That Coochie Baby
EXTT8=Don't Need No Husband
EXTT9=Moo Cow-A-Sockee
EXTT10=Zydeco Frotoir
EXTT11=Go Chere Go
EXTT12=Mardi Gras Zydeco
EXTT13=Mardi Gras Second Line
PLAYORDER=
